<svg id="Layer_1" height="512" viewBox="0 0 256 256" width="512" xmlns="http://www.w3.org/2000/svg"><g><path d="m213.063 215.564h-49.248c-1.381 0-2.5-1.119-2.5-2.5s1.119-2.5 2.5-2.5h46.748v-96.443l-82.563-67.947-82.563 67.947v96.443h46.653c1.381 0 2.5 1.119 2.5 2.5s-1.119 2.5-2.5 2.5h-49.153c-1.381 0-2.5-1.119-2.5-2.5v-100.124c0-.748.334-1.456.911-1.93l85.063-70.004c.924-.76 2.254-.76 3.178 0l85.063 70.004c.577.475.911 1.183.911 1.93v100.124c0 1.381-1.119 2.5-2.5 2.5z" fill="#ed9abc"/><g fill="#846f75"><path d="m104.649 108.852c2.35 2.286 5.826-1.174 3.535-3.536-7.882-7.881-19.94-10.512-33.093-7.213-.894.224-1.592.922-1.816 1.817-3.297 13.148-.668 25.21 7.214 33.092 2.365 2.28 5.819-1.168 3.535-3.535-6.322-6.323-8.563-16.052-6.242-26.867 10.815-2.322 20.544-.08 26.867 6.242z"/><path d="m180.908 98.103c-13.149-3.298-25.21-.668-33.093 7.213-.977.977-.977 2.56 0 3.536.977.977 2.559.977 3.535 0 6.322-6.323 16.05-8.566 26.867-6.242 2.321 10.815.08 20.544-6.242 26.867-.977.976-.977 2.559 0 3.536.977.976 2.559.976 3.535 0 7.882-7.882 10.511-19.943 7.214-33.092-.224-.896-.922-1.594-1.816-1.818z"/><path d="m160.561 191.336c-1.381 0-2.5 1.119-2.5 2.5 0 6.374-12.548 13.476-30.553 13.476s-30.553-7.102-30.553-13.476c0-1.381-1.119-2.5-2.5-2.5s-2.5 1.119-2.5 2.5c0 8.929 11.604 16.186 27.573 18.021-.834 1.394-1.323 3.017-1.323 4.756 0 5.129 4.173 9.303 9.303 9.303 5.129 0 9.302-4.173 9.302-9.303 0-1.739-.489-3.363-1.323-4.756 15.969-1.835 27.574-9.092 27.574-18.021 0-1.38-1.12-2.5-2.5-2.5zm-28.751 25.278c0 2.373-1.93 4.303-4.302 4.303s-4.303-1.93-4.303-4.303c0-2.372 1.931-4.302 4.303-4.302s4.302 1.93 4.302 4.302z"/><path d="m137.229 178.327c-3.081 0-5.678-2.083-6.474-4.914.91-.48 1.695-1.193 2.261-2.104l3.399-5.47c1.132-1.82 1.188-4.115.146-5.987-1.041-1.873-3.019-3.037-5.162-3.037h-6.799c-2.144 0-4.121 1.164-5.162 3.037-1.042 1.873-.986 4.167.146 5.988l3.399 5.47c.566.911 1.351 1.625 2.261 2.104-.795 2.83-3.393 4.914-6.474 4.914-1.381 0-2.5 1.119-2.5 2.5s1.119 2.5 2.5 2.5c3.747 0 7.081-1.772 9.229-4.516 2.149 2.743 5.483 4.516 9.229 4.516 1.381 0 2.5-1.119 2.5-2.5s-1.118-2.501-2.499-2.501zm-13.399-15.127c-.244-.395-.119-.745-.022-.919.098-.174.329-.466.793-.466h6.799c.464 0 .695.292.793.466.097.174.222.525-.022.919l-3.399 5.47c-.231.373-.582.428-.771.428s-.539-.056-.771-.428z"/><path d="m156.507 145.403c0-5.826-4.739-10.565-10.565-10.565s-10.565 4.74-10.565 10.565 4.739 10.565 10.565 10.565 10.565-4.739 10.565-10.565zm-10.566 5.565c-3.068 0-5.565-2.497-5.565-5.565s2.497-5.565 5.565-5.565 5.565 2.497 5.565 5.565-2.496 5.565-5.565 5.565z"/><path d="m120.624 145.403c0-5.826-4.739-10.565-10.565-10.565s-10.565 4.74-10.565 10.565 4.739 10.565 10.565 10.565 10.565-4.739 10.565-10.565zm-10.565 5.565c-3.068 0-5.565-2.497-5.565-5.565s2.497-5.565 5.565-5.565 5.565 2.497 5.565 5.565-2.497 5.565-5.565 5.565z"/><path d="m175.835 172.239c3.298-.084 3.296-4.917 0-5h-4.299c.591-2.138 1.027-4.339 1.299-6.59l3.429-.597c3.237-.649 2.401-5.41-.857-4.926 0 0-2.241.39-2.241.39.298-24.861-20.282-45.567-45.165-45.47-25.003-.011-45.36 20.461-45.165 45.47l-2.241-.39c-3.258-.484-4.094 4.277-.857 4.926 0 0 3.429.597 3.429.597.271 2.252.708 4.452 1.299 6.59h-4.299c-3.297.083-3.297 4.917 0 5h6.002c.79 1.934 1.711 3.799 2.751 5.589l-9.181 1.599c-2.982.542-2.576 4.948.426 4.963.142 0 .287-.012.432-.038l11.337-1.975c17.544 23.882 54.604 23.872 72.139 0l11.337 1.975c.145.025.289.038.432.038 3-.016 3.408-4.421.426-4.963 0 0-9.181-1.599-9.181-1.599 1.04-1.79 1.961-3.655 2.751-5.589zm-14.046 4.667-6.301-1.097c-3.257-.483-4.094 4.277-.857 4.926 0 0 3.803.662 3.803.662-15.487 18.548-45.387 18.541-60.867 0l3.803-.662c3.236-.648 2.401-5.409-.857-4.926 0 0-6.301 1.097-6.301 1.097-.961-1.492-1.828-3.049-2.589-4.667h5.782c3.297-.083 3.297-4.917 0-5h-7.738c-.579-1.844-1.026-3.744-1.336-5.691l12.181 2.122c.145.025.289.038.432.038 2.999-.016 3.409-4.421.426-4.963 0 0-13.512-2.353-13.512-2.353-.733-22.543 17.598-41.385 40.143-41.344 22.444-.116 40.968 18.931 40.143 41.344l-13.512 2.353c-2.982.542-2.575 4.948.426 4.963.142 0 .287-.012.432-.038l12.181-2.122c-.309 1.947-.756 3.847-1.336 5.691h-7.738c-3.297.083-3.297 4.917 0 5h5.782c-.762 1.618-1.629 3.175-2.59 4.667z"/><path d="m232.155 105.414-102.566-84.409c-.924-.76-2.254-.76-3.178 0l-102.566 84.409c-1.065.877-1.219 2.453-.342 3.519.88 1.068 2.454 1.219 3.52.342l100.977-83.102 100.978 83.101c.466.383 1.028.57 1.588.57.721 0 1.438-.311 1.932-.912.876-1.066.723-2.641-.343-3.518z"/></g></g></svg>